<?xml version="1.0" standalone="no"?>
<!DOCTYPE svg PUBLIC "-//W3C//DTD SVG 20010904//EN"
 "http://www.w3.org/TR/2001/REC-SVG-20010904/DTD/svg10.dtd">
<svg version="1.0" xmlns="http://www.w3.org/2000/svg"
 width="1102.000000pt" height="1102.000000pt" viewBox="0 0 1102.000000 1102.000000"
 preserveAspectRatio="xMidYMid meet">
<metadata>
Created by potrace 1.14, written by Peter Selinger 2001-2017
</metadata>
<g transform="translate(0.000000,1102.000000) scale(0.100000,-0.100000)"
fill="#000000" stroke="none">
<path d="M1685 9070 c-116 -11 -360 -58 -408 -78 -16 -7 -38 -12 -51 -12 -12
0 -31 -7 -42 -15 -10 -8 -30 -15 -44 -15 -14 0 -34 -7 -44 -15 -11 -8 -30 -15
-42 -15 -12 0 -27 -7 -34 -15 -7 -8 -23 -15 -35 -15 -12 0 -28 -7 -35 -15 -7
-8 -20 -15 -30 -15 -10 0 -23 -7 -30 -15 -7 -8 -20 -15 -30 -15 -10 0 -23 -7
-30 -15 -7 -8 -17 -15 -22 -15 -10 0 -120 -64 -143 -82 -5 -5 -50 -38 -99 -74
-122 -92 -316 -288 -316 -322 0 -6 -6 -15 -13 -19 -7 -4 -24 -26 -37 -48 -13
-22 -26 -42 -29 -45 -4 -3 -17 -27 -30 -55 -13 -27 -30 -62 -38 -77 -7 -14
-13 -33 -13 -41 0 -8 -7 -28 -15 -43 -17 -34 -20 -202 -4 -274 5 -25 13 -78
18 -118 12 -106 28 -116 67 -42 31 57 64 100 77 97 7 -1 11 6 9 15 -3 19 62
88 83 88 8 0 15 5 15 10 0 14 51 59 67 60 23 0 106 -193 148 -342 32 -112 40
-151 60 -288 9 -58 21 -121 28 -140 9 -26 12 -218 13 -740 2 -648 4 -717 23
-860 11 -85 25 -180 31 -210 28 -140 43 -208 56 -248 8 -23 14 -49 14 -56 0
-8 7 -27 15 -42 8 -16 15 -41 15 -55 0 -14 7 -34 15 -45 8 -10 15 -26 15 -35
0 -20 64 -167 79 -182 15 -15 14 -40 -1 -31 -18 11 51 -82 91 -123 38 -40 54
-30 25 15 -10 15 -19 30 -19 34 0 3 -3 10 -7 14 -5 4 -8 15 -8 24 0 10 -7 23
-15 30 -8 7 -15 23 -15 35 0 12 -7 28 -15 35 -8 7 -15 19 -15 27 0 8 -6 29
-13 46 -29 68 -75 193 -80 217 -3 14 -15 61 -27 105 -12 44 -28 114 -35 155
-8 41 -18 95 -24 120 -6 25 -11 71 -11 103 0 32 -6 68 -12 80 -10 17 -14 192
-18 737 -6 720 -14 900 -46 1001 -7 26 -14 65 -14 88 0 23 -7 58 -15 78 -8 19
-15 50 -15 67 -1 17 -7 42 -15 56 -8 14 -14 37 -15 53 0 15 -9 44 -20 64 -11
21 -20 43 -20 48 0 6 -8 29 -19 51 -10 21 -26 56 -36 77 -10 22 -24 41 -31 44
-19 7 12 53 36 53 10 0 23 7 30 15 7 8 23 15 35 15 12 0 28 7 35 15 7 9 29 15
50 15 21 0 40 5 42 10 2 6 28 13 58 16 30 3 72 12 93 20 37 14 152 19 181 8 8
-3 12 -12 10 -19 -3 -7 3 -19 13 -26 10 -8 36 -43 57 -79 22 -36 46 -69 53
-73 7 -4 13 -14 13 -22 0 -8 13 -37 30 -65 16 -28 30 -54 30 -57 0 -4 14 -36
31 -72 16 -36 36 -79 44 -96 8 -16 17 -45 20 -63 4 -18 13 -45 21 -60 8 -15
14 -35 14 -44 0 -9 5 -20 10 -23 6 -3 10 -20 10 -36 0 -16 6 -44 14 -62 7 -18
16 -55 20 -82 5 -28 12 -54 16 -60 9 -11 23 -90 45 -248 8 -59 17 -111 19
-116 7 -10 22 -202 36 -431 5 -85 10 -324 11 -532 0 -207 5 -410 10 -450 6
-40 12 -129 15 -198 3 -69 12 -144 20 -168 8 -23 14 -66 14 -95 0 -29 7 -74
15 -101 8 -27 15 -66 15 -86 0 -20 4 -40 10 -46 5 -5 14 -30 19 -54 14 -70 45
-184 52 -190 3 -3 9 -18 13 -35 4 -16 18 -52 32 -81 13 -28 24 -55 24 -60 0
-15 99 -205 115 -221 8 -8 15 -21 15 -29 0 -8 4 -14 9 -14 5 0 13 -10 16 -22
4 -13 24 -43 44 -68 20 -25 45 -58 56 -75 10 -16 54 -65 97 -108 43 -43 78
-81 78 -85 0 -4 21 -20 48 -37 26 -16 51 -35 55 -42 4 -7 15 -13 24 -13 9 0
24 -6 32 -14 19 -16 91 -29 91 -16 0 5 -13 11 -30 15 -16 4 -30 13 -30 20 0 8
-10 15 -22 17 -13 2 -23 8 -23 14 0 6 -31 39 -68 73 -38 34 -83 79 -100 99
-18 20 -37 40 -43 44 -6 4 -24 26 -40 50 -15 24 -43 59 -62 78 -18 20 -39 45
-45 57 -11 19 -26 44 -82 138 -41 68 -125 247 -125 265 0 7 -6 24 -14 38 -19
39 -46 126 -46 153 -1 13 -7 35 -15 49 -8 14 -14 41 -15 61 0 20 -7 56 -15 80
-9 24 -20 75 -24 114 -5 38 -14 104 -20 145 -26 197 -34 342 -41 815 -8 517
-19 752 -46 925 -7 53 -14 113 -14 134 0 20 -5 46 -10 56 -6 11 -13 47 -16 82
-3 35 -12 83 -19 108 -8 25 -24 91 -36 148 -12 56 -26 102 -31 102 -4 0 -8 12
-8 28 -1 15 -7 38 -15 52 -8 14 -14 33 -15 43 0 11 -7 35 -16 55 -8 21 -21 51
-28 67 -59 136 -149 303 -198 368 -32 43 -58 80 -58 82 0 3 51 5 113 5 80 0
120 -4 141 -15 15 -8 47 -15 70 -15 23 0 51 -7 62 -15 10 -8 32 -15 47 -15 16
0 41 -6 55 -13 15 -8 42 -21 60 -30 19 -9 42 -17 52 -17 9 0 23 -7 30 -15 7
-8 20 -15 30 -15 10 0 23 -7 30 -15 7 -8 18 -15 25 -15 7 0 24 -9 38 -20 14
-11 30 -20 36 -20 15 0 87 -71 83 -82 -1 -5 11 -27 27 -47 17 -21 28 -41 24
-44 -3 -4 6 -22 21 -41 14 -19 26 -40 26 -47 0 -6 8 -30 19 -53 21 -48 41
-102 48 -133 3 -13 9 -23 14 -23 4 0 11 -17 15 -37 4 -21 10 -43 15 -48 4 -6
13 -35 18 -65 9 -52 14 -72 46 -195 8 -27 18 -86 25 -130 6 -44 15 -111 20
-150 6 -38 14 -122 20 -185 5 -63 15 -153 21 -200 6 -47 15 -285 19 -530 5
-245 11 -463 14 -485 2 -22 7 -125 11 -230 4 -104 13 -222 21 -262 8 -40 14
-95 14 -123 0 -28 6 -76 14 -108 15 -61 34 -150 46 -222 10 -60 40 -173 50
-185 4 -5 10 -25 13 -43 9 -47 56 -160 118 -285 102 -204 111 -222 118 -227 4
-3 18 -23 31 -45 13 -22 32 -46 43 -54 10 -7 21 -21 25 -31 12 -31 65 -91 182
-209 114 -115 169 -154 203 -142 17 6 17 7 0 23 -71 66 -253 251 -278 282 -16
21 -41 52 -55 69 -14 18 -36 48 -49 67 -14 19 -30 39 -38 43 -7 4 -13 16 -13
26 0 10 -7 24 -15 31 -8 6 -17 20 -20 31 -4 11 -23 47 -44 82 -20 34 -50 91
-65 127 -16 36 -32 69 -37 75 -5 5 -9 18 -9 28 0 10 -7 31 -15 45 -24 44 -81
249 -100 357 -9 55 -20 106 -25 115 -4 8 -10 51 -13 95 -4 44 -10 96 -16 115
-5 19 -12 87 -15 150 -3 63 -10 140 -15 171 -5 31 -12 225 -16 430 -11 620
-39 1096 -74 1269 -6 25 -13 72 -16 105 -4 33 -12 83 -20 110 -7 28 -21 86
-30 130 -9 44 -22 98 -29 120 -7 22 -19 60 -26 85 -7 25 -19 59 -26 77 -8 17
-14 35 -14 41 0 15 -53 127 -62 130 -4 2 -8 15 -8 28 0 13 -5 24 -10 24 -6 0
-14 8 -17 18 -4 9 -14 22 -22 29 -11 9 -12 12 -3 13 16 0 64 -30 75 -47 4 -7
14 -13 20 -13 7 0 20 -8 29 -17 9 -10 38 -36 64 -58 89 -74 434 -426 434 -442
0 -5 22 -33 50 -63 27 -30 55 -66 62 -80 7 -14 19 -33 28 -42 60 -67 120 -175
120 -216 0 -15 4 -32 9 -38 5 -5 13 -34 19 -64 22 -118 34 -176 45 -210 6 -19
14 -66 18 -105 17 -169 30 -274 40 -325 6 -30 15 -230 19 -445 5 -214 13 -421
19 -460 6 -38 11 -104 11 -145 0 -41 7 -100 15 -130 8 -30 15 -72 15 -93 0
-21 7 -54 15 -74 8 -19 15 -51 15 -69 0 -19 8 -60 19 -91 10 -32 26 -85 36
-118 27 -95 85 -254 120 -330 18 -39 36 -82 40 -95 4 -14 14 -32 21 -41 8 -8
24 -34 36 -56 71 -128 103 -179 115 -186 7 -4 19 -22 27 -40 8 -18 28 -47 45
-65 17 -18 31 -37 31 -42 0 -5 6 -13 13 -17 6 -4 38 -40 69 -78 58 -73 261
-268 341 -329 26 -20 58 -38 72 -42 14 -3 25 -10 25 -15 0 -14 -51 -11 -106 6
-28 8 -88 15 -140 15 -59 0 -105 5 -127 15 -22 9 -68 15 -114 15 -49 1 -87 6
-103 15 -15 9 -53 14 -96 15 -38 0 -75 5 -81 11 -6 6 -17 8 -23 4 -9 -6 -8
-10 4 -17 9 -5 16 -14 16 -19 0 -25 285 -309 448 -447 47 -39 51 -42 62 -42 6
0 13 -7 16 -15 4 -8 13 -15 20 -15 8 0 17 -7 20 -15 4 -8 12 -15 19 -15 8 0
20 -6 27 -13 35 -33 247 -147 276 -147 9 0 26 -7 36 -15 11 -8 33 -15 49 -15
15 0 38 -6 50 -12 12 -7 60 -16 107 -19 47 -4 116 -10 153 -14 78 -9 255 9
302 30 17 7 41 17 53 20 33 10 112 90 112 114 0 11 5 23 10 26 15 10 12 91 -7
148 -23 75 -70 140 -173 241 -49 49 -90 93 -90 98 0 4 -75 8 -167 8 -93 0
-186 5 -208 11 -21 6 -98 14 -170 18 -116 5 -130 8 -127 24 2 10 -6 21 -20 27
-13 5 -38 22 -55 37 -18 15 -47 39 -64 53 -17 14 -47 41 -68 60 -20 19 -59 56
-86 81 -54 51 -132 134 -180 193 -65 80 -81 99 -97 117 -10 10 -18 22 -18 25
0 3 -13 23 -28 43 -16 20 -32 43 -35 51 -4 8 -27 47 -52 85 -24 39 -44 75 -45
82 0 6 -16 40 -35 75 -19 34 -39 72 -44 83 -55 123 -131 339 -131 373 0 12 -6
36 -14 54 -20 46 -60 243 -75 368 -25 199 -32 332 -36 653 -2 191 -8 362 -14
380 -5 18 -15 88 -21 157 -15 165 -34 311 -45 333 -4 11 -8 45 -9 78 -1 32 -4
59 -8 59 -8 0 -28 66 -28 93 0 9 5 17 10 17 6 0 10 -9 10 -20 0 -11 6 -23 14
-26 8 -3 17 -16 20 -30 4 -13 10 -24 15 -24 5 0 12 -13 16 -30 4 -16 10 -30
15 -30 4 0 11 -12 15 -27 3 -15 10 -30 14 -33 4 -3 25 -41 45 -85 21 -44 45
-92 52 -107 8 -14 14 -33 14 -41 0 -8 7 -20 15 -27 8 -7 15 -23 15 -35 0 -12
7 -28 15 -35 8 -7 15 -25 15 -40 0 -15 7 -33 15 -40 8 -7 15 -25 15 -40 0 -15
7 -33 15 -40 8 -7 15 -25 15 -39 0 -15 7 -36 15 -47 8 -10 15 -29 15 -42 0
-13 5 -33 11 -44 13 -24 35 -106 51 -188 6 -30 14 -59 19 -65 5 -5 9 -31 9
-57 0 -27 6 -61 14 -76 8 -15 16 -53 20 -86 3 -32 10 -64 15 -70 5 -6 12 -37
16 -69 3 -32 13 -70 21 -85 7 -15 14 -41 14 -58 0 -17 7 -48 15 -67 8 -20 15
-47 15 -61 0 -13 7 -37 15 -52 8 -16 15 -41 15 -55 0 -15 7 -40 15 -55 8 -16
15 -43 15 -60 0 -17 7 -37 15 -44 8 -7 15 -27 15 -44 0 -17 7 -40 15 -50 8
-11 15 -29 15 -41 0 -12 7 -30 15 -41 8 -10 15 -31 15 -45 0 -15 7 -32 15 -39
8 -7 15 -21 15 -31 0 -11 9 -36 20 -56 11 -21 20 -43 20 -50 0 -7 5 -13 10
-13 6 0 10 -5 10 -12 0 -13 73 -162 110 -225 6 -10 13 -26 16 -35 4 -10 10
-18 14 -18 5 0 12 -10 16 -22 8 -26 97 -150 137 -190 9 -10 17 -21 17 -25 1
-19 208 -219 292 -283 51 -38 98 -74 105 -80 7 -5 14 -10 17 -10 3 0 24 -13
48 -29 87 -58 228 -131 255 -131 7 0 16 -7 19 -15 4 -8 18 -15 33 -15 14 0 35
-7 45 -15 11 -8 31 -15 45 -15 14 -1 37 -7 51 -15 14 -8 37 -14 51 -15 14 0
34 -7 45 -15 14 -11 52 -14 160 -15 113 0 144 -3 154 -15 7 -8 20 -15 30 -15
10 0 23 -7 30 -15 7 -8 19 -15 27 -15 7 0 16 -7 19 -15 4 -8 15 -15 25 -15 30
0 69 -29 185 -137 60 -56 134 -119 164 -140 30 -21 57 -40 60 -43 9 -10 89
-60 125 -80 11 -6 34 -19 50 -29 17 -11 64 -36 105 -56 41 -20 88 -42 103 -50
16 -8 36 -15 46 -15 9 0 25 -6 36 -14 11 -7 36 -17 55 -21 19 -4 40 -11 45
-15 10 -8 73 -24 160 -42 28 -5 65 -14 84 -20 134 -41 683 -41 806 0 17 6 53
15 80 21 87 17 150 33 160 41 6 4 25 11 43 15 18 4 45 13 60 21 15 8 32 14 39
14 6 0 24 7 40 15 15 8 63 31 106 52 116 57 127 63 190 105 32 21 61 38 63 38
3 0 51 35 107 77 100 75 313 279 372 357 17 21 40 50 53 65 48 55 205 300 223
348 4 12 15 23 24 23 8 0 53 -29 99 -65 46 -36 91 -65 99 -65 8 0 20 -7 27
-15 7 -8 20 -15 30 -15 10 0 23 -7 30 -15 7 -8 21 -15 32 -15 11 0 29 -5 40
-11 79 -42 397 -65 486 -35 25 9 57 16 72 16 14 0 35 7 46 15 10 8 27 15 37
15 17 0 49 14 97 41 8 5 25 13 38 19 33 14 160 110 207 156 54 53 115 129 115
143 0 6 3 11 8 11 4 0 25 35 45 78 21 42 45 90 53 105 8 16 14 37 14 47 0 11
6 34 14 52 26 58 36 240 22 358 -7 58 -18 118 -25 133 -6 16 -11 39 -11 51 0
13 -7 29 -15 36 -8 7 -15 23 -15 35 0 12 -7 28 -15 35 -8 7 -15 20 -15 30 0
10 -7 23 -15 30 -8 7 -15 17 -15 22 0 19 -131 178 -177 215 -25 21 -54 46 -65
56 -10 9 -20 17 -23 17 -6 0 -65 40 -75 50 -3 3 -27 15 -55 28 -27 13 -57 27
-65 31 -23 12 -148 47 -215 60 -33 7 -141 15 -241 18 -156 5 -186 4 -214 -11
-18 -9 -35 -14 -37 -12 -6 5 -43 114 -43 125 0 19 32 41 59 41 16 0 34 7 41
15 7 8 24 15 39 15 14 0 35 7 45 15 11 8 30 15 42 15 12 0 27 7 34 15 7 8 17
15 23 15 10 0 129 57 167 80 8 5 44 26 80 46 36 21 71 44 78 51 7 7 19 13 27
13 7 0 15 7 19 15 3 8 12 15 21 15 8 0 15 5 15 10 0 6 9 14 19 18 55 20 381
342 381 375 0 5 14 26 30 47 17 21 30 45 30 54 0 9 7 19 15 22 8 4 15 14 15
23 0 10 7 26 15 37 8 10 15 26 15 34 0 8 7 28 15 44 8 15 15 39 15 52 0 13 6
41 14 61 8 21 17 68 20 106 4 37 10 77 15 90 13 34 20 243 12 327 -8 72 -25
131 -46 158 -24 31 -61 62 -87 73 -34 14 -70 0 -101 -39 -10 -12 -24 -28 -30
-35 -7 -6 -30 -34 -52 -62 -52 -66 -174 -185 -191 -185 -7 0 -14 -3 -16 -7 -6
-14 -67 -53 -81 -53 -8 0 -20 -7 -27 -15 -7 -8 -20 -15 -29 -15 -10 0 -26 -7
-37 -15 -10 -8 -30 -15 -44 -15 -14 0 -36 -7 -50 -15 -14 -8 -41 -14 -60 -15
-19 0 -67 -7 -105 -15 -39 -8 -109 -15 -156 -15 -47 0 -108 -7 -135 -15 -27
-8 -69 -15 -94 -15 -25 -1 -63 -7 -85 -15 -22 -8 -52 -15 -67 -15 -15 0 -45
-6 -65 -14 -21 -7 -65 -21 -98 -31 -102 -31 -245 -98 -283 -132 -7 -7 -17 -13
-22 -13 -5 0 -45 -36 -89 -81 l-79 -81 -5 74 c-8 120 -30 198 -87 302 -39 72
-72 125 -99 155 -11 13 -21 27 -21 30 0 9 -56 71 -173 192 -56 58 -109 116
-117 128 -8 13 -29 42 -46 65 -17 22 -34 48 -37 56 -4 8 -16 29 -27 45 -10 17
-31 54 -45 82 -15 29 -30 55 -36 58 -5 4 -9 17 -9 29 0 13 -7 29 -15 36 -8 7
-15 22 -15 34 0 12 -7 31 -15 42 -8 10 -15 27 -15 36 0 10 -6 32 -14 50 -26
62 -38 143 -45 298 -5 133 -9 159 -26 182 -16 22 -28 27 -61 28 -25 0 -47 -6
-54 -15 -7 -8 -18 -15 -25 -15 -35 0 -296 -264 -317 -321 -4 -10 -12 -19 -18
-19 -5 0 -10 -5 -10 -10 0 -10 -37 -67 -51 -80 -8 -8 -69 -110 -80 -134 -5
-12 -20 -39 -34 -61 -13 -22 -24 -47 -25 -56 0 -9 -7 -22 -15 -29 -8 -7 -15
-22 -15 -34 0 -11 -7 -30 -15 -40 -8 -11 -15 -30 -15 -43 0 -13 -6 -36 -14
-51 -14 -28 -30 -174 -30 -272 1 -101 16 -255 30 -289 8 -18 14 -48 14 -65 0
-17 7 -40 15 -50 8 -11 15 -34 15 -52 0 -17 7 -37 15 -44 8 -7 15 -23 15 -36
0 -12 4 -25 9 -29 5 -3 15 -22 22 -43 6 -20 15 -39 18 -42 3 -3 17 -27 30 -55
13 -27 37 -66 53 -86 15 -20 28 -40 28 -43 0 -11 21 -34 89 -99 124 -118 182
-179 179 -188 -2 -5 -113 -11 -248 -14 -135 -3 -283 -10 -330 -15 -47 -6 -170
-15 -275 -21 -104 -6 -230 -14 -280 -19 -143 -13 -263 -12 -272 3 -4 7 -19 20
-33 28 -39 25 -165 153 -223 227 -29 36 -64 80 -79 96 -16 17 -28 35 -28 41 0
6 -13 25 -29 42 -15 17 -31 37 -35 45 -3 7 -15 27 -26 43 -11 17 -23 37 -27
45 -8 18 -45 73 -54 80 -4 3 -9 15 -13 28 -4 12 -12 22 -17 22 -5 0 -9 5 -9
11 0 9 -55 107 -110 199 -6 8 -21 38 -35 65 -15 28 -35 64 -45 80 -11 17 -22
37 -26 45 -3 8 -10 22 -15 30 -5 8 -14 27 -20 43 -6 15 -15 27 -20 27 -5 0 -9
8 -9 18 0 10 -4 22 -9 28 -12 11 -68 109 -84 147 -6 15 -15 27 -19 27 -4 0 -8
5 -8 11 0 9 -78 143 -132 227 -10 15 -22 36 -28 47 -11 23 -20 36 -76 119 -99
148 -176 255 -219 302 -5 6 -17 22 -25 34 -36 53 -307 335 -406 420 -63 55
-243 190 -253 190 -6 0 -11 4 -11 8 0 5 -10 14 -22 21 -13 6 -36 20 -53 31
-16 11 -39 24 -50 30 -11 6 -33 19 -50 30 -16 11 -41 25 -55 30 -13 6 -27 14
-30 18 -8 11 -225 116 -325 157 -16 7 -47 20 -68 29 -21 9 -45 16 -55 16 -9 0
-26 7 -36 15 -11 8 -29 15 -41 15 -12 0 -30 7 -41 15 -10 8 -30 15 -44 15 -14
0 -36 7 -50 15 -14 8 -36 14 -50 15 -14 0 -38 7 -54 15 -15 8 -42 15 -60 15
-17 1 -42 7 -56 15 -14 8 -38 14 -55 15 -16 0 -50 6 -75 14 -50 16 -134 31
-255 47 -44 5 -96 14 -115 20 -44 13 -617 20 -725 9z m1335 -2461 c0 -5 -4 -9
-10 -9 -5 0 -10 7 -10 16 0 8 5 12 10 9 6 -3 10 -10 10 -16z m1720 -535 c41
-5 89 -22 130 -45 8 -5 25 -13 36 -18 35 -16 120 -103 138 -144 21 -45 17 -67
-6 -43 -9 9 -22 16 -28 16 -7 0 -24 6 -38 14 -47 25 -161 37 -233 25 -35 -6
-71 -18 -80 -25 -8 -8 -20 -14 -26 -14 -16 0 -120 -97 -137 -128 -9 -15 -20
-39 -27 -54 -6 -16 -15 -28 -20 -28 -5 0 -9 -6 -9 -12 0 -7 -7 -26 -15 -41 -8
-15 -17 -45 -21 -65 -4 -20 -11 -42 -16 -48 -15 -20 -16 -204 -1 -219 7 -8 13
-20 13 -27 0 -25 41 -89 85 -134 25 -24 45 -47 45 -49 0 -13 -79 17 -163 62
-40 21 -127 108 -127 126 0 8 -7 20 -15 27 -8 7 -15 22 -15 34 0 12 -7 31 -15
42 -20 26 -20 179 0 227 8 20 15 49 15 65 0 15 7 37 15 48 8 10 15 28 15 39 0
11 6 29 14 40 7 11 17 31 21 45 11 37 91 155 127 187 17 15 38 36 46 46 9 9
24 17 33 17 9 0 22 7 29 15 7 8 29 16 49 16 20 1 50 5 66 9 17 5 39 6 50 4 11
-2 40 -7 65 -10z m5250 -1339 c23 -8 54 -15 67 -15 14 0 37 -6 51 -14 15 -7
50 -24 77 -37 28 -12 55 -28 61 -33 6 -6 31 -27 56 -46 66 -50 178 -204 178
-245 0 -5 7 -23 15 -38 38 -74 39 -329 1 -402 -9 -16 -16 -35 -16 -40 0 -34
-97 -176 -159 -233 -39 -36 -134 -102 -148 -102 -4 -1 -26 -9 -48 -20 -22 -11
-49 -19 -61 -20 -11 0 -26 -6 -32 -12 -9 -9 -51 -13 -130 -13 -116 0 -174 11
-269 52 -17 7 -34 13 -38 13 -8 0 -66 43 -133 99 -62 51 -108 117 -94 134 5 7
13 29 16 51 4 21 11 46 16 55 14 24 56 215 71 321 5 36 14 97 20 135 6 39 13
121 16 182 6 123 7 124 78 160 143 73 312 101 405 68z m-4445 -340 c22 -7 61
-16 87 -20 26 -3 50 -10 53 -16 4 -5 23 -9 44 -9 21 0 61 -7 87 -14 27 -8 75
-23 107 -32 31 -9 57 -22 57 -28 0 -17 -36 -85 -56 -107 -37 -41 -84 -14 -84
49 0 17 -9 37 -21 48 -18 17 -23 17 -46 4 -24 -14 -54 -53 -69 -90 -3 -8 -9
-22 -14 -30 -5 -8 -26 -46 -46 -85 -20 -38 -42 -77 -48 -85 -21 -27 -46 -90
-46 -115 0 -22 -5 -25 -32 -25 -18 1 -44 7 -58 15 -14 8 -40 14 -58 15 -18 0
-46 7 -62 15 l-29 15 50 51 c27 28 49 56 49 63 0 8 7 19 15 26 8 7 15 19 15
28 0 8 6 23 14 31 30 36 116 215 107 224 -20 20 -76 11 -120 -21 -48 -35 -72
-40 -91 -17 -10 12 -9 20 5 42 10 14 21 38 25 52 11 42 68 47 165 16z m3198 6
c32 -12 51 -45 43 -76 -4 -16 -17 -25 -48 -33 -52 -13 -92 4 -93 39 0 28 -37
38 -61 19 -17 -15 -19 -115 -2 -126 6 -4 33 -7 60 -6 45 1 49 -1 46 -20 -2
-14 -13 -24 -33 -30 -38 -10 -55 -33 -55 -76 0 -19 -8 -82 -17 -139 -16 -98
-16 -107 -1 -134 9 -16 14 -31 10 -33 -18 -11 -146 -36 -183 -36 -38 0 -39 1
-28 22 6 12 16 71 22 132 15 170 14 187 -11 204 -30 20 -28 48 3 56 22 6 25
12 25 51 0 44 26 125 40 125 4 0 17 9 30 20 13 11 32 20 44 20 12 0 28 6 37
13 20 15 138 21 172 8z m-486 -78 c3 -10 12 -25 20 -35 10 -11 11 -18 3 -23
-6 -4 -15 -18 -20 -31 -8 -20 -16 -24 -54 -24 -47 0 -56 9 -56 56 0 41 30 73
68 74 22 0 35 -6 39 -17z m894 -44 c21 -22 29 -41 29 -66 0 -55 -47 -94 -152
-127 -96 -30 -111 -46 -77 -83 30 -31 101 -32 158 -1 22 12 44 18 48 14 11
-11 -40 -99 -64 -111 -12 -6 -28 -17 -37 -24 -12 -10 -44 -13 -108 -12 -86 1
-94 3 -121 29 -42 40 -57 85 -57 169 0 69 3 79 37 130 28 42 47 60 82 74 25
11 60 26 76 34 20 10 50 13 93 10 55 -4 67 -9 93 -36z m-1792 -43 c16 -10 14
-99 -4 -122 -8 -10 -15 -30 -15 -42 0 -13 -6 -38 -13 -55 -8 -18 -22 -59 -31
-92 -10 -33 -24 -74 -33 -91 -8 -17 -16 -64 -18 -105 l-4 -74 -126 0 c-69 0
-125 3 -125 8 0 4 6 7 13 7 8 0 18 10 24 23 24 52 53 134 53 149 0 9 5 20 10
23 6 3 10 16 10 28 0 12 16 67 36 122 26 72 36 118 38 165 l1 65 55 5 c54 5
107 -1 129 -14z m401 -23 c0 -4 -10 -17 -22 -30 -22 -23 -39 -81 -57 -189 -5
-28 -14 -61 -20 -72 -6 -11 -14 -45 -17 -76 -4 -31 -11 -59 -15 -62 -5 -3 -9
-16 -9 -28 0 -28 28 -38 82 -30 31 5 44 16 79 65 50 68 91 91 116 66 14 -13
14 -21 5 -42 -7 -14 -12 -37 -12 -51 0 -14 -7 -38 -16 -53 -15 -25 -22 -27
-162 -44 -168 -20 -312 -23 -312 -6 0 6 8 23 19 37 10 15 21 49 25 75 4 26 14
63 22 82 8 19 14 51 14 72 0 21 7 58 16 83 9 25 16 77 16 116 l0 71 72 10 c88
12 176 15 176 6z m-1490 -77 c87 -28 110 -51 110 -110 0 -34 -6 -48 -30 -71
-28 -27 -33 -28 -125 -27 -53 1 -105 4 -115 7 -23 7 -42 -18 -35 -47 11 -42
63 -68 138 -68 37 0 67 -2 67 -5 0 -3 -15 -21 -33 -39 -54 -54 -148 -59 -249
-14 -27 12 -48 26 -48 31 0 5 -10 23 -22 40 -32 45 -28 107 12 182 35 66 80
111 122 120 15 4 30 11 33 16 11 17 99 9 175 -15z m1943 0 c4 -9 14 -12 26 -9
20 5 21 1 21 -68 0 -46 -6 -85 -15 -102 -9 -18 -16 -67 -18 -133 -2 -57 -6
-106 -8 -108 -2 -2 -38 -6 -79 -10 -41 -3 -90 -8 -107 -12 -35 -7 -45 10 -20
34 15 16 35 111 47 232 8 78 7 97 -5 110 -19 21 -19 30 -1 30 7 0 19 7 26 15
7 9 29 15 51 15 21 0 41 5 44 10 9 15 32 12 38 -4z m-1408 -56 c22 -11 45 -19
51 -20 19 0 55 -46 65 -83 7 -28 6 -48 -7 -89 -9 -29 -20 -57 -24 -63 -4 -5
-10 -27 -14 -48 -5 -29 -3 -39 9 -43 23 -9 18 -33 -10 -46 -14 -6 -25 -15 -25
-20 0 -4 -21 -8 -47 -8 -37 0 -57 7 -87 30 -46 35 -62 37 -96 10 -18 -14 -41
-20 -83 -20 -51 0 -62 4 -87 29 -54 53 -30 158 44 191 39 18 148 15 186 -5 16
-8 35 -12 43 -10 34 14 60 129 37 165 -8 13 -13 13 -37 0 -15 -9 -29 -25 -31
-35 -5 -26 -41 -55 -71 -55 -31 0 -71 39 -71 71 0 60 166 92 255 49z m-4550
-530 c3 -5 1 -10 -4 -10 -6 0 -11 5 -11 10 0 6 2 10 4 10 3 0 8 -4 11 -10z"/>
<path d="M4515 6030 c3 -5 8 -10 11 -10 2 0 4 5 4 10 0 6 -5 10 -11 10 -5 0
-7 -4 -4 -10z"/>
<path d="M4425 5970 c3 -5 8 -10 11 -10 2 0 4 5 4 10 0 6 -5 10 -11 10 -5 0
-7 -4 -4 -10z"/>
<path d="M8952 4253 c-34 -91 -43 -136 -30 -144 28 -18 63 -10 75 19 24 55 25
77 4 104 -12 14 -21 31 -21 37 0 21 -18 11 -28 -16z"/>
<path d="M6154 4087 c-38 -40 -56 -78 -50 -103 9 -33 38 -31 75 5 27 26 36 58
32 109 -2 19 -34 13 -57 -11z"/>
<path d="M6613 3842 c-14 -19 -19 -36 -16 -55 5 -23 10 -27 38 -27 39 0 65 26
65 67 0 50 -52 59 -87 15z"/>
<path d="M880 4580 c0 -5 5 -10 11 -10 5 0 7 5 4 10 -3 6 -8 10 -11 10 -2 0
-4 -4 -4 -10z"/>
</g>
</svg>
